<?xml version="1.0" encoding="UTF-8" standalone="no"?>
<!-- Created with Inkscape (http://www.inkscape.org/) -->

<svg
   xmlns:dc="http://purl.org/dc/elements/1.1/"
   xmlns:cc="http://creativecommons.org/ns#"
   xmlns:rdf="http://www.w3.org/1999/02/22-rdf-syntax-ns#"
   xmlns:svg="http://www.w3.org/2000/svg"
   xmlns="http://www.w3.org/2000/svg"
   xmlns:sodipodi="http://sodipodi.sourceforge.net/DTD/sodipodi-0.dtd"
   xmlns:inkscape="http://www.inkscape.org/namespaces/inkscape"
   width="1000"
   height="300"
   id="svg2"
   version="1.1"
   inkscape:version="0.48.3.1 r9886"
   sodipodi:docname="New document 1">
  <defs
     id="defs4" />
  <sodipodi:namedview
     id="base"
     pagecolor="#ffffff"
     bordercolor="#666666"
     borderopacity="1.0"
     inkscape:pageopacity="0.0"
     inkscape:pageshadow="2"
     inkscape:zoom="0.98994949"
     inkscape:cx="400.63503"
     inkscape:cy="75.04879"
     inkscape:document-units="px"
     inkscape:current-layer="layer1"
     showgrid="false"
     fit-margin-top="0.8"
     fit-margin-left="0"
     fit-margin-right="0"
     fit-margin-bottom="0.5"
     inkscape:window-width="1680"
     inkscape:window-height="1026"
     inkscape:window-x="0"
     inkscape:window-y="24"
     inkscape:window-maximized="1" />
  <metadata
     id="metadata7">
    <rdf:RDF>
      <cc:Work
         rdf:about="">
        <dc:format>image/svg+xml</dc:format>
        <dc:type
           rdf:resource="http://purl.org/dc/dcmitype/StillImage" />
        <dc:title></dc:title>
      </cc:Work>
    </rdf:RDF>
  </metadata>
  <g
     inkscape:label="Layer 1"
     inkscape:groupmode="layer"
     id="layer1"
     transform="translate(64.733949,-593.54354)">
    <path
       style="fill:#000000"
       d="m -6.023449,873.39255 c -1.7772,-1.24476 -2.0617,-2.19726 -1.6262,-5.4441 0.2903,-2.16445 1.8001,-5.81569 3.3551,-8.11386 2.2706,-3.35575 5.8004,-13.54309 4.98020002,-14.37323 -0.1059,-0.10711 -1.95500002,0.20277 -4.10920002,0.68862 -2.1542,0.48585 -4.3915,0.57818 -4.9719,0.20518 -0.5804,-0.37301 -2.9467,-0.73769 -5.2585,-0.8104 -2.774,-0.0873 -5.2179,-0.94084 -7.1875,-2.51043 -1.6414,-1.30803 -4.0249,-3.10362 -5.2968,-3.9902 -2.3672,-1.6502 -3.2161,-4.07622 -6.4341,-18.38803 -2.742,-12.19484 -2.4635,-16.05263 1.6037,-22.21652 1.8932,-2.86908 4.5842,-5.65816 5.9801,-6.19796 1.3958,-0.5398 6.4032,-0.88744 11.1275,-0.77254 7.4916,0.18222 9.1186,0.55904 12.7285,2.94797 5.1905,3.43486 6.1819,3.43205 6.1819,-0.0175 0,-1.51613 0.4254,-4.23971 0.9452,-6.05241 1.1083,-3.86441 -0.4217,-5.0767 -3.9942,-3.16475 -2.83479998,1.5171 -3.9146,-0.005 -3.9357,-5.5484 -0.012,-3.02666 0.7433,-4.94243 3.0496,-7.74044 3.2735,-3.97128 3.1593,-5.72802 -0.37389998,-5.75271 -4.27700002,-0.0299 -5.20070002,-1.41016 -3.79480002,-5.67022 1.7158,-5.19895 5.0399,-8.83435 15.2465,-16.67426 11.1255,-8.54577 12.3705,-11.406 6.7677,-15.5483 -2.8422,-2.10134 -3.7273,-2.22776 -11.0563,-1.579 -7.78279998,0.68894 -8.02029998,0.78928 -10.2868,4.34616 -4.5925,7.20708 -10.4377,12.98757 -12.5694,12.43013 -1.4414,-0.37693 -1.9979,-1.36452 -1.9979,-3.54537 0,-3.8608 8.8956,-17.4109 15.8913,-24.20624 2.8098,-2.72932 5.1087,-5.54182 5.1087,-6.25 0,-1.6188 -0.2954,-1.60883 -4.51029998,0.15226 -2.22050002,0.9278 -3.66680002,1.08254 -4.06700002,0.43511 -1.1272,-1.82396 0.6072,-7.73579 4.06380002,-13.85117 1.87269998,-3.31309 2.97439998,-6.0238 2.44829998,-6.0238 -0.5261,0 -2.86419998,0.85957 -5.1957,1.91016 -2.3315,1.05059 -6.4323,2.12659 -9.1128,2.39111 -2.6805,0.26452 -5.2611,1.09245 -5.7347,1.83984 -0.5931,0.93607 -0.8657,0.98275 -0.8763,0.15002 -0.01,-0.66488 -2.2397,-1.99893 -4.9585,-2.96455 -4.5787,-1.62622 -5.1606,-2.22357 -7.8917,-8.10163 l -2.9484,-6.34596 2.0045,-5.18949 c 1.1025,-2.85423 2.9991,-7.8895 4.2147,-11.1895 3.5782,-9.71404 3.9434,-10.11892 11.1738,-12.38844 7.0792,-2.22208 9.8309,-2.02732 14.8903,1.05393 4.1042,2.49948 4.5,2.35298 4.5,-1.66549 0,-3.218 -0.2404,-3.5 -2.98379998,-3.5 l -2.98380002,0 1.627,-3.75 c 0.8948,-2.0625 2.87810002,-6.42287 4.4073,-9.68972 l 2.7804,-5.93972 -2.0179,-3.95544 c -1.6225,-3.18032 -1.8036,-4.4258 -0.9243,-6.35573 0.9618,-2.11083 1.546,-2.32324 4.8444,-1.76137 2.0629,0.35141 4.9275,1.46546 6.3658,2.47568 1.4384,1.01022 4.1384,2.54639 6,3.4137 9.3178,4.34094 11.2689,5.96787 12.6971,10.58724 1.2805,4.1416 1.2352,4.81886 -0.5352,8 -1.7971,3.22912 -2.3891,3.53078 -8.3556,4.2575 -3.5317,0.43017 -7.9964,1.10517 -9.9214,1.5 -3.4524,0.7081 -3.4989,0.78584 -3.4192,5.71786 0.044,2.75 0.8388,11.2194 1.7652,18.82089 0.9264,7.6015 1.4717,14.16505 1.2117,14.58569 -0.2599,0.42063 -0.1102,2.07623 0.3327,3.6791 0.5976,2.16244 0.2208,4.253 -1.4604,8.10311 l -2.2658,5.18879 2.4468,1.60319 c 2.2293,1.46073 2.3883,2.04375 1.789,6.56121 l -0.6577,4.95803 3.7629,0 c 8.7024,0 13.9843,3.28737 13.343,8.30461 -0.1543,1.20746 0.9417,3.98735 2.4356,6.17752 6.7188,9.85036 -0.4005,25.01641 -13.3982,28.54162 -3.3324,0.90382 -3.6629,1.33509 -4.2378,5.52903 -0.3562,2.599 -1.7582,6.03653 -3.2709,8.01975 -2.3995,3.14587 -2.5046,3.63289 -1.1223,5.19924 0.8389,0.95052 2.5052,4.0325 3.7028,6.84884 2.0535,4.8288 2.0882,5.3344 0.6101,8.87212 -1.0594,2.5354 -1.5675,6.90988 -1.5675,13.49454 0,8.56357 0.2699,10.08618 2.2298,12.5778 2.3614,3.00198 2.4788,6.58514 0.317,9.67158 -0.769,1.09784 -1.0725,3.64459 -0.7876,6.60912 0.4742,4.93476 -1.0468,9.36166 -4.6911,13.65423 -2.2124,2.60582 -5.5507,10.35078 -4.7896,11.11188 0.3254,0.32532 3.8312,-1.02927 7.7909,-3.0102 3.9596,-1.98092 8.1514,-3.60174 9.315,-3.60182 1.1636,-7e-5 5.5135,-1.04857 9.6665,-2.33 6.4344,-1.98534 8.2547,-3.08227 12.3104,-7.41812 2.6177,-2.79853 6.6701,-5.98635 9.0053,-7.08402 6.2802,-2.95205 6.7915,-3.98192 6.9724,-14.04543 0.1461,-8.13089 1.2537,-12.52584 2.3703,-9.40521 0.2395,0.6694 1.451,2.71358 2.6922,4.54264 2.8144,4.14728 3.8099,7.78068 2.5482,9.30093 -0.6343,0.76431 -0.3669,3.45152 0.778,7.81654 l 1.7446,6.65181 -3.9178,3.4855 c -2.1548,1.91703 -4.5222,3.4855 -5.2609,3.4855 -2.3691,0 -3.5551,4.95195 -1.8202,7.5998 4.2378,6.46765 -0.8575,11.57834 -9.5444,9.57316 -2.9729,-0.68622 -5.9115,-0.75165 -8.0547,-0.17936 -1.8559,0.49555 -7.125,1.15074 -11.7093,1.45598 -4.5842,0.30523 -9.5342,0.8428 -11,1.19459 -3.1535,0.75686 -10.0412,4.06637 -12.165,5.84521 -2.4233,2.02972 -10.5764,2.49564 -13.0728,0.74707 z m 7.8693,-51.25501 c 2.2345,-13.03081 1.6292,-14.75597 -6.6406,-18.92703 -4.0121,-2.02361 -4.738,-2.09217 -9.5,-0.89731 -8.43,2.11524 -10.2574,6.49002 -6.1374,14.69271 2.8965,5.76694 5.3143,7.70675 12.8536,10.31253 8.00320002,2.76614 8.06770002,2.73068 9.4244,-5.1809 z m -5.2965,-142.22627 c 8.0213,-3.987 8.7486,-5.73442 5.8849,-14.13904 -1.186,-3.48057 -2.64659998,-5.42274 -5.4969,-7.30897 -3.6577,-2.42055 -4.1432,-2.49564 -8.4107,-1.30083 -2.4908,0.69741 -4.7471,1.62127 -5.014,2.05302 -0.2668,0.43176 -0.9676,4.37008 -1.5573,8.75181 -0.9085,6.75039 -0.8322,8.43096 0.4999,11.00682 2.3655,4.57443 6.256,4.83313 14.0941,0.93719 z M 421.61945,834.26946 c -0.3014,-0.48765 -2.0828,-1.17456 -3.9586,-1.52646 -3.4987,-0.65637 -6.38,-2.9939 -4.8533,-3.93744 0.4704,-0.29073 3.9797,-1.09041 7.7985,-1.77708 5.6828,-1.02183 7.7585,-1.95645 11.4339,-5.14826 2.4698,-2.14488 6.8426,-5.3066 9.7173,-7.02606 3.0412,-1.81898 5.6014,-4.18671 6.1225,-5.66217 1.65,-4.67118 9.2362,-32.52034 9.2027,-33.78301 -0.018,-0.68591 -1.5515,-2.93591 -3.4074,-5 -1.8559,-2.06408 -5.241,-7.47548 -7.5225,-12.02533 -2.2814,-4.54984 -5.056,-9.18031 -6.1656,-10.28993 -2.3278,-2.32779 -4.2003,-6.70358 -3.4134,-7.97674 0.2962,-0.47921 2.6164,0.23355 5.1561,1.58391 2.5397,1.35037 5.1789,2.45521 5.8651,2.45521 1.651,0 6.9565,6.11111 9.3569,10.7778 1.053,2.04721 3.2361,4.97719 4.8514,6.51107 3.4678,3.293 4.2019,2.75739 6.5641,-4.78887 2.8302,-9.04133 5.4037,-15.62146 6.5628,-16.78063 0.8541,-0.85406 2.257,0.10548 5.5852,3.82004 2.4445,2.72833 4.4647,5.46641 4.4894,6.08464 0.025,0.61822 -1.0816,3.13947 -2.4584,5.60277 -1.3768,2.4633 -3.3523,6.9467 -4.3901,9.96312 -2.0285,5.89583 -4.9383,11.99969 -6.1067,12.81006 -1.536,1.06531 -4.0002,7.03548 -4.0037,9.70034 0,1.53981 -0.9307,4.32004 -2.0636,6.17829 -1.1392,1.86863 -1.9664,4.77366 -1.8509,6.5 0.4236,6.32864 -0.1396,8.77007 -2.5876,11.21813 -1.3783,1.37822 -3.3931,4.24486 -4.4774,6.37033 -1.9828,3.88664 -5.8058,7.22694 -9.5168,8.31522 -3.7802,1.1086 -15.6219,5.72935 -18.5098,7.22277 -3.2363,1.67352 -6.5918,1.9486 -7.4201,0.60828 z m 252.7769,-8.36336 c -0.2558,-0.4125 -1.8108,-0.75 -3.4557,-0.75 -6.2391,0 -13.3611,-6.48743 -12.1608,-11.07736 0.4739,-1.81221 -0.1395,-1.92264 -10.6796,-1.92264 -6.1503,0 -11.9771,0.4253 -12.9483,0.94512 -2.4873,1.33115 -13.1026,0.1131 -13.1026,-1.50346 0,-1.95018 5.5084,-4.89976 16,-8.56747 8.5435,-2.98668 10.5761,-3.31545 20.1872,-3.26523 l 10.6871,0.0558 5.8129,4.4176 c 7.0429,5.35242 10.2923,7.13943 11.8766,6.53149 1.7466,-0.67022 4.4362,-9.29575 4.4362,-14.22665 0,-2.34107 0.7465,-7.54841 1.6588,-11.57186 1.0826,-4.77436 1.7033,-12.352 1.7869,-21.81538 0.07,-7.975 0.5109,-15.99098 0.9788,-17.81328 l 0.8508,-3.31328 -3.8561,2.61685 c -2.5697,1.74385 -4.6173,2.42582 -6.1377,2.04423 -4.4448,-1.11559 -7.173,0.43518 -9.3663,5.32422 -2.5693,5.72688 -3.0569,13.80472 -0.9152,15.16085 2.1107,1.3365 9.738,1.21332 10.5936,-0.17108 0.4931,-0.79787 1.1255,-0.58562 2.059,0.69113 3.3276,4.55074 0.2966,7.8178 -8.2985,8.94471 -10.4186,1.366 -13.7512,-3.21299 -13.8167,-18.98435 -0.034,-8.08882 0.2547,-9.52713 2.848,-14.20669 3.4011,-6.13741 8.7562,-10.0316 14.805,-10.76618 2.3703,-0.28785 6.4878,-0.90905 9.1501,-1.38044 7.8776,-1.39486 10.807,-0.32759 13.3683,4.87057 2.788,5.65834 2.8284,8.54762 0.1889,13.5213 -1.1563,2.17879 -2.2869,6.43644 -2.5126,9.46144 -0.2257,3.025 -0.8557,10.225 -1.4001,16 -0.6442,6.83424 -0.6497,11.68523 -0.016,13.89492 0.62,2.16065 0.6311,4.92559 0.031,7.60508 -0.5876,2.62194 -0.5905,5.44108 -0.01,7.47319 0.9739,3.3959 -0.8878,10.02681 -2.8151,10.02681 -0.5087,0 -3.6466,2.42853 -6.9731,5.39672 -3.3265,2.9682 -7.5458,5.87083 -9.3762,6.4503 -3.6276,1.14843 -8.7412,1.09611 -9.4809,-0.097 z m -550.8855,-2.81806 c -11.5113,-3.66542 -16.4112,-7.65956 -20.524,-16.73005 -4.589499,-10.12187 -5.538899,-18.01605 -3.568999,-29.6758 2.257699,-13.36325 2.508999,-12.52609 -3.7591,-12.52609 l -5.3906,0 -0.423,-3.6232 c -0.5213,-4.46588 2.5474,-11.1204 5.8146,-12.60907 2.0685,-0.94243 8.024499,-8.55271 7.214499,-9.21817 -0.1787,-0.14681 -2.3499,-0.89302 -4.824899,-1.65824 -3.7172,-1.1493 -4.5541,-1.86001 -4.8111,-4.08574 -0.171,-1.48193 0.279,-3.7763 1,-5.0986 1.4695,-2.69468 11.621399,-11.9766 19.488399,-17.81822 6.1365,-4.55669 6.0716,-4.46602 6.8975,-9.6314 0.7422,-4.64149 0.058,-5.12669 -7.5748,-5.37256 -7.4166,-0.2389 -12.9154,1.83404 -17.899399,6.74771 -5.1946,5.12116 -8.4082,5.53635 -8.9137,1.15165 -0.4435,-3.84687 1.9763,-8.34133 8.3154,-15.44449 4.9847,-5.58544 5.497699,-6.59232 5.497699,-10.78943 0,-4.14747 0.1706,-4.49494 1.6395,-3.33968 4.6377,3.64742 8.2669,8.08669 8.8752,10.85627 0.56,2.54972 1.0636,3.00531 2.8332,2.56333 5.4196,-1.35362 15.7404,3.56683 17.5558,8.36984 2.0005,5.29232 2.2363,9.96231 0.6192,12.26283 -0.8648,1.23044 -2.0143,3.87131 -2.5543,5.86859 -0.7496,2.77247 -1.749,3.91579 -4.2252,4.83367 -1.7839,0.66124 -5.7184,2.25195 -8.7434,3.53491 -3.025,1.28296 -6.9625,2.8749 -8.75,3.53765 -4.0136,1.48812 -4.1317,2.53601 -0.3705,3.28824 5.2346,1.04694 8.6669,6.96826 6.2668,10.81147 -0.6305,1.00953 -1.1463,2.71186 -1.1463,3.78297 0,1.16903 -1.6682,3.07313 -4.1734,4.76357 -5.3248,3.59295 -5.6723,4.8274 -1.9073,6.77437 3.2748,1.69345 6.0807,6.11613 6.0807,9.58434 0,1.17806 -0.8773,3.25728 -1.9496,4.62049 -1.0723,1.3632 -2.6741,4.97061 -3.5596,8.01646 -1.9953,6.86356 -1.037,12.29996 3.8939,22.09155 3.6619,7.27158 6.9284,9.71566 15.0716,11.27715 3.6488,0.69968 4.2944,0.4609 8.3092,-3.07301 4.0524,-3.56711 14.1926,-7.97525 18.3458,-7.97525 0.9476,0 3.6796,-0.83875 6.0712,-1.86389 3.6957,-1.58417 4.5426,-1.65585 5.6432,-0.47766 1.4053,1.5044 0.6869,5.34155 -1.0001,5.34155 -0.5718,0 -0.7806,0.675 -0.464,1.5 0.3166,0.825 0.1398,1.5 -0.393,1.5 -0.5327,0 -0.9686,1.12109 -0.9686,2.4913 0,1.50609 -1.2852,3.72118 -3.25,5.60128 -1.7875,1.71048 -3.2708,3.6269 -3.2962,4.25869 -0.095,2.3729 -2.6125,5.67942 -5.4338,7.13838 -4.6641,2.41189 -15.0869,1.77665 -25.5585,-1.55771 z m 200.3654,-35.82677 c -10.1465,-6.43473 -12.6152,-14.16508 -9.4349,-29.54362 1.6366,-7.91358 2.0979,-17.12136 1.001,-19.97976 -0.3632,-0.94652 -1.7888,-1.58179 -3.5496,-1.58179 -4.1284,0 -8.8434,-2.65293 -8.8434,-4.97578 0,-1.64133 0.8458,-1.96853 5.75,-2.22432 6.4716,-0.33754 5.4935,1.19894 8.2516,-12.96297 0.6557,-3.36651 1.7232,-5.90108 2.6325,-6.25 2.9306,-1.12459 4.366,-0.58223 4.4013,1.66307 0.02,1.2375 0.6786,3.375 1.4646,4.75 0.786,1.375 1.4451,4.1875 1.4646,6.25 0.035,3.73781 0.049,3.75004 4.2854,3.76082 5.2116,0.0133 13.4673,2.42339 15.9274,4.64973 2.8284,2.55965 2.3286,6.84295 -1.0818,9.27136 -3.6767,2.61805 -4.4381,2.58739 -10.9427,-0.44067 -2.9409,-1.36907 -5.6921,-2.27606 -6.1136,-2.01553 -1.3167,0.81373 -3.3435,22.27897 -2.656,28.12836 0.7017,5.97056 2.974,11.39593 4.773,11.39593 0.6076,0 3.3402,-1.60592 6.0722,-3.56871 2.7321,-1.96279 5.232,-3.30415 5.5553,-2.9808 0.8838,0.88381 0.2946,9.598 -0.9004,13.3169 -2.1087,6.56194 -10.5206,8.11691 -18.0565,3.33778 z m -69.7188,-0.95332 c -1.293,-1.81595 -3.412,-3.2624 -5.3717,-3.66683 -1.78,-0.36735 -4.8114,-1.67854 -6.7364,-2.91376 -1.925,-1.23523 -4.8322,-2.57642 -6.4604,-2.98043 -2.9476,-0.73137 -8.5396,-5.68103 -8.5396,-7.55868 0,-0.54232 1.0914,-1.70118 2.4254,-2.57525 2.1327,-1.39738 2.3766,-2.17664 2.021,-6.45625 -0.3671,-4.41773 -0.1986,-4.8963 1.8246,-5.18385 1.3039,-0.18532 4.5117,1.19072 7.729,3.3155 3.025,1.99777 7.616,4.81664 10.2022,6.26415 2.5862,1.44752 5.2862,3.82251 6,5.27777 0.7138,1.45525 2.5125,3.5447 3.9971,4.64322 l 2.6992,1.99732 3.6139,-2.75639 c 8.4256,-6.42651 14.5521,-16.86151 14.7883,-25.18837 0.1468,-5.16946 -5.6354,-13.57941 -11.1465,-16.21232 -2.5598,-1.22295 -6.4542,-3.81353 -8.6542,-5.75685 -2.2,-1.94332 -5.8,-4.45301 -8,-5.57709 -5.8905,-3.00973 -9.5,-6.76225 -9.5,-9.87647 0,-4.38863 6.7978,-16.65078 12.4274,-22.41694 6.7599,-6.92387 10.9254,-8.19633 22.0726,-6.74259 4.4,0.57381 9.2067,0.80975 10.6814,0.5243 2.8903,-0.55941 2.9563,-0.52164 10.1027,5.7842 4.4294,3.90835 4.7549,4.51398 4.3895,8.16732 -0.217,2.17027 -0.9366,4.28098 -1.5992,4.69046 -2.7638,1.70812 -15.6277,1.03794 -21.1247,-1.10056 -10.0573,-3.91262 -17.4497,-3.41755 -26.6333,1.78366 -4.4053,2.49491 -6.0205,5.28224 -4.5666,7.8802 0.9843,1.75892 13.8019,8.47895 16.1929,8.48965 2.5675,0.0115 15.9851,4.83546 21.453,7.71292 6.1382,3.23023 13.1466,8.65201 15.1642,11.73117 1.6526,2.52224 4.442,12.48631 4.4365,15.84773 0,3.15224 -5.5343,17.52184 -7.6832,19.96817 -4.8896,5.56619 -9.3878,8.81875 -15.3132,11.07286 -8.2957,3.15579 -9.7996,3.46915 -20.1746,4.20352 l -8.5818,0.60745 -2.1355,-2.99894 z m 135.4547,1.66512 c -0.2342,-0.72433 -1.163,-3.96899 -2.064,-7.21036 l -1.638,-5.89338 -2.966,3.59825 c -3.621,4.39293 -14.8258,10.17599 -18.106,9.34493 -6.3607,-1.61155 -16.7888,-18.00052 -16.7888,-26.38567 0,-2.27325 1.5205,-7.79097 3.5,-12.70113 1.925,-4.77496 3.5,-10.42996 3.5,-12.56666 0,-4.90054 1.4739,-5.8458 4.574,-2.9334 2.0556,1.93113 2.424,3.20665 2.4126,8.35476 -0.01,3.60387 -0.9794,9.10354 -2.3878,13.51809 -2.1293,6.67448 -2.2383,7.828 -1.0558,11.17954 2.2644,6.4178 4.3809,8.87806 7.6378,8.87806 4.8855,0 6.8192,-1.61722 6.8192,-5.70327 0,-17.80186 10.5539,-40.63123 15.7396,-34.04673 0.5728,0.72742 0.8628,7.10288 0.6936,15.25 -0.2475,11.91624 0.1373,16.08054 2.0789,22.5 0.083,0.275 1.1485,2.72487 2.3673,5.44416 2.9173,6.5089 2.5408,9.95 -1.1351,10.37281 -1.6334,0.18788 -2.9291,-0.21938 -3.1815,-1 z m 105.5636,-3.44509 c -1.9329,-2.18402 -0.876,-8.51538 2.7383,-16.40528 2.258,-4.92904 3.1227,-8.60652 3.6368,-15.4666 0.3709,-4.95 1.3098,-12.375 2.0863,-16.5 0.7765,-4.125 1.4119,-9.53943 1.412,-12.03207 10e-5,-2.49264 0.6716,-6.99264 1.4922,-10 0.8206,-3.00736 1.9844,-7.61265 2.5863,-10.23398 1.2724,-5.54187 6.548,-13.70218 9.9779,-15.43411 1.3073,-0.66009 2.5587,-1.01834 2.7809,-0.79611 0.2222,0.22224 0.9858,2.90666 1.6968,5.9654 1.1095,4.77299 1.083,5.77111 -0.1871,7.04118 -1.9808,1.98081 -0.4873,6.33242 5.8674,17.09603 2.6322,4.45849 4.7858,8.67609 4.7858,9.37245 0,5.11319 6.9662,-9.69862 8.4557,-17.97879 0.3463,-1.925 1.8747,-5.975 3.3965,-9 2.1745,-4.32249 3.3323,-5.56673 5.4079,-5.81165 2.7107,-0.31989 7.3534,1.53148 6.3519,2.53298 -0.3076,0.30762 0.091,1.73366 0.8851,3.16899 1.5186,2.74356 2.6036,10.2001 4.9634,34.10968 1.3126,13.29955 2.2199,17.9863 4.5493,23.5 0.4648,1.1 1.1373,4.92055 1.4944,8.4901 0.3572,3.56956 1.0373,6.95749 1.5114,7.52873 1.0643,1.28231 -2.2346,8.9773 -4.1487,9.67751 -3.2553,1.19081 -7.6685,-2.0915 -10.4464,-7.76939 -2.3186,-4.73898 -2.7946,-7.10271 -2.9772,-14.78391 -0.1196,-5.02867 -0.5545,-16.53816 -0.9666,-25.57663 l -0.7492,-16.43359 -1.9887,5.43359 c -1.0938,2.98847 -3.0147,6.80997 -4.2687,8.49221 -1.254,1.68224 -3.2723,5.16974 -4.4851,7.75 -2.4415,5.1939 -3.2836,5.48645 -8.4668,2.94138 -2.6565,-1.30441 -4.6076,-3.6199 -7.663,-9.0939 l -4.099,-7.3439 -1.7252,5.09623 c -0.9489,2.80293 -2.4361,5.88269 -3.305,6.8439 -2.1359,2.36281 -13.726,34.0664 -13.726,37.54594 0,1.58101 -4.0697,9.70799 -4.8392,9.66369 -0.3634,-0.0209 -1.2789,-0.73646 -2.0344,-1.59008 z m 121.1385,-2.33976 c -2.4973,-2.32654 -2.2031,-7.08658 0.8101,-13.10981 1.4762,-2.9508 1.6135,-4.35258 0.7837,-8 -0.5533,-2.43227 -0.8604,-9.94873 -0.6824,-16.70324 0.3062,-11.61762 0.4317,-12.26575 2.3237,-12 1.1847,0.16641 2.8394,1.94188 4.059,4.35529 l 2.059,4.07435 5.728,-2.90553 c 5.9208,-3.00336 15.8448,-5.0066 19.8602,-4.00892 4.4426,1.10386 7.5136,4.12039 8.6159,8.46309 0.908,3.57726 0.7757,4.92336 -0.8435,8.584 -1.0563,2.38779 -2.4343,8.20296 -3.0624,12.9226 -1.1792,8.86146 -4.9435,18.29605 -7.2998,18.29605 -2.7773,0 -6.0975,-11.97925 -5.1067,-18.42469 0.3446,-2.24142 1.7542,-7.55188 3.1324,-11.80102 1.3783,-4.24913 2.2493,-8.141 1.9356,-8.64858 -0.3225,-0.52181 -3.4908,0.0607 -7.2902,1.34031 -5.9474,2.00306 -6.8131,2.6236 -7.5322,5.39859 -0.6645,2.56419 -1.3174,3.13539 -3.5839,3.13539 -1.5243,0 -3.3114,-0.54 -3.9714,-1.2 -1.6094,-1.60939 -1.6133,3.57852 -0.01,11.34788 1.2719,6.15782 1.2612,6.20486 -3.5969,15.7948 -2.6882,5.30641 -3.5162,5.71057 -6.3297,3.08944 z m -647.221399,-1.45076 c -0.791,-1.47807 -1.0395,-3.71417 -0.6389,-5.75 0.3605,-1.83225 0.6699,-4.11886 0.6876,-5.08136 0.048,-2.62597 1.8892,-2.14443 7.6464,2 8.7247,6.2807 7.947,11.25 -1.7607,11.25 -3.8842,0 -4.8508,-0.39395 -5.9344,-2.41864 z m 438.758899,0.53404 c -4.9335,-1.04542 -6.3738,-2.40244 -8.432,-7.94417 -0.9542,-2.56918 -2.3279,-5.55886 -3.0526,-6.64374 -1.9619,-2.93659 -1.605,-9.3267 0.732,-13.10799 2.1559,-3.48833 10.0507,-10.49101 13.4502,-11.93028 1.1,-0.46572 3.7211,-1.32881 5.8247,-1.91799 l 3.8246,-1.07123 0.4162,-11.5 c 0.2289,-6.325 0.6586,-12.63505 0.9548,-14.02234 0.3418,-1.60056 -0.3842,-4.34143 -1.9867,-7.5 -2.696,-5.31433 -3.0875,-7.50677 -1.6119,-9.02766 0.507,-0.5225 1.3212,-2.525 1.8095,-4.45 0.871,-3.43437 0.9944,-3.50563 6.5782,-3.79991 4.5103,-0.2377 5.6906,0.009 5.6906,1.19098 0,0.81999 -0.45,1.769 -1,2.10893 -1.4943,0.92355 -1.1951,6.60225 0.5213,9.89354 1.265,2.42557 1.3579,4.85149 0.5744,15 -0.9308,12.057 -0.1813,37.07502 1.1758,39.24852 1.4875,2.38225 1.631,8.64578 0.259,11.29901 -0.7735,1.49577 -1.4166,4.03344 -1.4292,5.63926 -0.041,5.23907 -0.572,6.90772 -2.4413,7.67076 -2.8297,1.15502 -17.709,1.74339 -21.8576,0.86431 z m 16.2081,-11.14062 c 1.0672,-2.57659 0.9399,-4.17078 -0.8589,-10.75 -1.1615,-4.24863 -2.2333,-8.84978 -2.3817,-10.22478 -0.2541,-2.35405 -0.6348,-2.14192 -6.5199,3.63348 l -6.25,6.13347 0,6.03319 c 0,5.67151 0.1649,6.09341 2.75,7.03758 1.5125,0.55241 4.8329,1.03991 7.3787,1.08333 4.2398,0.0723 4.7339,-0.17522 5.8818,-2.94627 z m 413.484,8.01909 c -0.9986,-1.10337 -1.5595,-2.26225 -1.2464,-2.57527 0.313,-0.31303 0.1763,-1.93872 -0.3037,-3.61265 -0.625,-2.17904 -0.4471,-3.86701 0.6264,-5.94282 1.2024,-2.32528 1.398,-5.64718 0.9878,-16.7783 -0.4087,-11.08914 -0.2327,-14.11045 0.8759,-15.03047 0.8629,-0.71613 1.6137,-0.78537 1.9859,-0.18314 0.3292,0.53259 2.6123,2.0939 5.0737,3.46959 l 4.4752,2.50124 5.2653,-2.90291 c 3.7269,-2.0547 6.6682,-2.9082 10.0664,-2.92102 4.4887,-0.0169 4.886,0.19334 6.1068,3.23188 0.7181,1.7875 1.8752,6.03184 2.5711,9.43187 1.1835,5.78145 1.1199,6.4827 -0.9827,10.826 l -2.2482,4.64413 4.0927,3.70381 c 3.2496,2.94084 7.1593,9.91454 7.1593,12.76992 0,1.00009 -7.4336,0.20139 -9.8748,-1.06099 -4.7303,-2.44613 -9.7528,-8.83425 -10.4695,-13.31618 -0.5229,-3.27025 -0.1337,-5.1235 1.9452,-9.26248 2.4361,-4.85028 2.5099,-5.40318 1.1783,-8.83017 -1.5971,-4.11033 -3.9843,-4.51116 -8.3795,-1.40699 -2.0578,1.4533 -2.4052,2.37834 -2.0429,5.43966 0.3219,2.72056 -0.053,4.13139 -1.428,5.37587 -1.3951,1.26248 -1.6208,2.14257 -0.8966,3.49568 1.6376,3.06002 1.0571,6.24643 -1.9932,10.93987 -6.8724,10.57458 -8.9886,11.92312 -12.5446,7.99387 z m -256.7581,-0.79552 c -1.4984,-0.7159 -2.926,-2.2909 -3.1727,-3.5 -2.4624,-12.07041 -2.237,-23.12515 0.6323,-31.00659 1.596,-4.38416 3.3594,-6.89729 7.1921,-10.25 5.3566,-4.68587 6.5109,-5.14277 8.3489,-3.30475 0.6254,0.62535 3.2677,1.32012 5.8719,1.54392 5.2122,0.44795 6.2698,1.37784 9.4612,8.31907 1.7552,3.8174 1.9024,5.06302 0.9708,8.2117 -1.0906,3.68604 -0.9563,5.23311 1.1891,13.69404 1.054,4.15666 0.9732,4.52413 -1.4295,6.5 -1.4006,1.15184 -3.7091,3.96669 -5.1299,6.25521 -1.7081,2.75138 -3.5296,4.36595 -5.3769,4.76608 -4.3767,0.94802 -15.5501,0.20823 -18.5573,-1.22868 z m 16.8787,-9.12761 c 2.9069,-2.72476 3.1634,-3.53642 3.8363,-12.13899 l 0.7212,-9.21898 -2.8363,-2.32042 c -1.56,-1.27623 -3.2509,-2.33661 -3.7576,-2.35639 -0.5066,-0.0198 -1.7489,-0.78497 -2.7604,-1.70043 -1.7243,-1.56048 -1.9856,-1.52702 -4.1812,0.53564 -4.277,4.01807 -5.9984,15.68714 -3.5922,24.35117 1.7821,6.41674 7.4043,7.69073 12.5702,2.8484 z m 163.3731,5.67926 c -3.1322,-5.13502 -3.4896,-8.71832 -3.466,-34.75 0.029,-32.54795 0.4941,-46.89202 1.5397,-47.53826 0.4738,-0.29281 1.8912,1.34246 3.1498,3.63394 1.2586,2.29148 2.8557,5.19136 3.5492,6.44418 1.5606,2.81938 1.7946,18.67407 0.355,24.05407 -1.3892,5.1918 -3.1305,24.15956 -2.4099,26.25176 0.3133,0.90987 1.8822,4.47007 3.4864,7.91155 1.6042,3.44149 2.5933,6.78046 2.1981,7.41994 -0.4908,0.79406 -0.1532,0.94572 1.0648,0.47835 1.5291,-0.58679 1.6874,-0.29026 1.1103,2.08006 -0.3701,1.52043 -0.6801,3.50761 -0.6889,4.41597 -0.015,1.61317 -2.6027,2.8074 -6.1414,2.83479 -0.9706,0.008 -2.6568,-1.44885 -3.7471,-3.23635 z m 61.2366,-0.45119 c -2.7845,-3.47099 -3.1854,-3.65914 -4.8793,-2.29024 -2.7156,2.19459 -6.1388,3.99143 -7.6041,3.99143 -0.7071,0 -2.8967,-1.32789 -4.8656,-2.95088 -2.9011,-2.39129 -3.7976,-4.03481 -4.7279,-8.66678 -1.7243,-8.58583 -1.4311,-11.49611 1.8116,-17.98538 3.0458,-6.09517 10.7226,-14.39696 13.313,-14.39696 1.8973,0 7.0349,7.75649 6.339,9.57014 -0.3686,0.96049 0.1377,1.32083 1.6315,1.16124 1.664,-0.17775 2.6465,0.76692 4.2389,4.07595 3.7513,7.79486 2.9182,29.5593 -1.1838,30.92663 -0.5717,0.19059 -2.4047,-1.35523 -4.0733,-3.43515 z m -1.7815,-17.5158 c 0.352,-2.90566 0.8853,-6.96705 1.185,-9.02533 l 0.5449,-3.74232 -3.3366,0.62332 c -2.1321,0.3983 -4.7015,2.11032 -7.1173,4.74232 -3.6661,3.99422 -3.7648,4.29577 -3.2564,9.95407 0.2883,3.20929 0.7759,6.24231 1.0835,6.74005 0.3076,0.49775 2.7413,-0.20068 5.4081,-1.55206 4.6864,-2.3748 4.8702,-2.63389 5.4888,-7.74005 z m -96.9433,18.53583 c -7.261,-1.63069 -8.4215,-2.45901 -11.092,-7.91744 -2.3923,-4.88951 -2.6053,-6.17176 -2.0025,-12.05462 1.123,-10.96138 6.0923,-18.085 13.2383,-18.97763 13.1075,-1.63728 16.788,-1.48814 20.7622,0.84134 6.0666,3.55599 7.8316,6.62598 8.0225,13.95444 0.1586,6.08546 -0.3627,9.05506 -2.6575,15.13778 -2.0847,5.52605 -17.7983,10.91892 -26.271,9.01613 z m 11.9657,-11.74006 c 3.3944,-1.41829 5.9567,-5.07814 7.6231,-10.88847 0.9274,-3.2336 -0.6295,-8.08812 -3.5213,-10.97997 -1.9283,-1.92824 -9.0499,-2.35681 -10.1298,-0.6096 -0.3794,0.61401 -1.9132,0.85416 -3.4685,0.54309 -3.4781,-0.69561 -3.7097,-0.12985 -4.5606,11.1416 -0.5693,7.54162 -0.4198,9.06046 1.0344,10.51475 2.0977,2.09765 8.349,2.23139 13.0227,0.2786 z m 44.8283,9.67122 c -0.3537,-0.9625 -1.2941,-2.14034 -2.0896,-2.61743 -1.1906,-0.71396 -1.3215,-2.74858 -0.7402,-11.5 0.3885,-5.84791 1.2304,-13.78257 1.8711,-17.63257 0.9928,-5.96659 1.4829,-7.04535 3.3202,-7.30717 2.5997,-0.37046 6.2113,3.9978 9.3399,11.29654 2.2843,5.32886 2.1513,9.40104 -0.4899,15.01063 -0.7769,1.65 -1.6789,4.6875 -2.0043,6.75 -0.3255,2.0625 -1.1382,3.75 -1.806,3.75 -0.6677,0 -1.7762,0.9 -2.4631,2 -1.5407,2.46692 -4.0761,2.59528 -4.9381,0.25 z m -808.502899,-6.99415 c -3.1116,-0.70405 -5.9349,-6.69955 -5.5975,-11.88705 0.1685,-2.59186 0.8266,-4.88354 1.4624,-5.09263 0.6358,-0.20909 2.7733,1.03985 4.75,2.77543 3.1828,2.79453 3.594,3.70181 3.594,7.92955 0,4.9854 -1.3055,6.93162 -4.2089,6.2747 z m 162.708899,-6.61768 c -2.75,-1.26052 -8.0375,-3.09475 -11.75,-4.07606 -3.7125,-0.98131 -6.75,-1.99963 -6.75,-2.26293 0,-0.26329 3.7125,-0.18109 8.25,0.18269 l 8.25,0.6614 1.7362,-2.82163 c 0.9548,-1.5519 3.4889,-5.22229 5.6313,-8.15641 2.5663,-3.51478 4.3172,-7.32358 5.1323,-11.16435 1.7459,-8.22686 4.0005,-8.56597 6.4286,-0.9669 1.3883,4.34508 1.7252,7.77354 1.3857,14.10331 -0.3872,7.22063 -0.849,8.93794 -3.3813,12.57476 -2.4974,3.5867 -3.4524,4.21249 -6.4328,4.21502 -1.925,0.002 -5.75,-1.02837 -8.5,-2.2889 z m 641.5727,-38.14004 c -3.6599,-7.74628 -3.7526,-8.90851 -0.8714,-10.9266 2.0056,-1.40478 2.3835,-1.38233 4.25,0.25246 1.1268,0.98688 3.1738,2.26934 4.5489,2.84991 1.5172,0.64056 3.034,2.53181 3.8579,4.81022 1.2776,3.53326 1.2187,3.88794 -1.0002,6.01561 -1.2968,1.24354 -3.5627,2.54018 -5.0352,2.88142 -2.4948,0.57817 -2.8865,0.17739 -5.75,-5.88302 z M 68.365751,688.03234 c -3.5332,-4.27247 -4.5593,-9.84854 -4.0767,-22.15426 0.2636,-6.72209 1.0738,-14.31443 1.8004,-16.87185 1.1439,-4.02607 1.1133,-4.96711 -0.2283,-7.01462 -2.7122,-4.13933 -15.3267,-5.87759 -22.5469,-3.10694 -1.1183,0.42913 -1.3578,0.23079 -0.8038,-0.66557 0.6044,-0.97803 -8e-4,-1.13784 -2.586,-0.68282 l -3.3751,0.59406 3.4016,-1.55184 c 1.8708,-0.85351 4.8929,-2.68939 6.7158,-4.07974 3.152,-2.40418 3.7279,-2.49344 11.7672,-1.82377 10.2839,0.85664 13.0143,2.36189 18.0525,9.95226 l 3.7959,5.71878 -1.2467,6.15503 c -1.4868,7.34047 -3.3407,10.65503 -5.9597,10.65503 -2.8437,0 -3.8487,2.60075 -2.8412,7.35232 1.8612,8.77771 2.0032,12.19956 0.6443,15.5297 -1.1123,2.72594 -1.5929,3.1073 -2.5133,1.99423 z"
       id="path3009"
       inkscape:connector-curvature="0" />
  </g>
</svg>
